<svg version="1.1" id="Uploaded to svgrepo.com" xmlns="http://www.w3.org/2000/svg" xmlns:xlink="http://www.w3.org/1999/xlink" x="0px" y="0px"
	 width="32px" height="32px" viewBox="0 0 32 32" style="enable-background:new 0 0 32 32;" xml:space="preserve">
<style type="text/css">
	.open_een{fill:#0B1719;}
</style>
<g>
	<g>
		<circle class="open_een" cx="16" cy="16" r="0.5"/>
		<path class="open_een" d="M18.817,16.011L29.856,4.918c0.116-0.116,0.167-0.283,0.137-0.445c-0.03-0.161-0.139-0.298-0.289-0.364
			c-1.873-0.828-4.107-0.411-5.556,1.036l-8.125,8.046l-1.377-1.377c0.719-1.839,0.295-3.948-1.106-5.349
			c-1.07-1.069-2.544-1.601-4.057-1.438C7.977,5.185,6.628,6.017,5.784,7.311c-1.113,1.71-1.044,3.973,0.175,5.63
			c0.98,1.333,2.468,2.057,4.01,2.057c0.729,0,1.472-0.162,2.178-0.498c0.249-0.118,0.355-0.416,0.236-0.666
			c-0.118-0.25-0.418-0.356-0.666-0.236c-1.761,0.835-3.797,0.322-4.952-1.248c-0.958-1.304-1.017-3.15-0.143-4.492
			C7.3,6.816,8.381,6.147,9.587,6.021c1.203-0.124,2.39,0.293,3.246,1.15c1.187,1.187,1.495,3.011,0.769,4.54
			c-0.091,0.191-0.052,0.419,0.098,0.568l1.614,1.614l-3.498,3.464c-2.12-0.837-4.487-0.167-5.862,1.701
			C4.735,20.718,4.666,22.98,5.78,24.69c0.843,1.293,2.191,2.125,3.698,2.282c1.509,0.159,2.986-0.368,4.057-1.438
			c1.485-1.484,1.873-3.766,0.964-5.677c-0.119-0.25-0.418-0.355-0.666-0.236c-0.249,0.118-0.355,0.416-0.236,0.666
			c0.727,1.529,0.418,3.354-0.769,4.54c-0.856,0.857-2.041,1.275-3.246,1.15c-1.206-0.126-2.286-0.795-2.964-1.835
			c-0.875-1.341-0.816-3.188,0.141-4.492c1.156-1.571,3.195-2.085,4.953-1.248c0.189,0.093,0.417,0.054,0.566-0.096L24.854,5.854
			c0.979-0.979,2.402-1.371,3.726-1.069L17.842,15.572c-0.095,0.059-0.17,0.147-0.21,0.256c-0.066,0.183-0.021,0.387,0.115,0.524
			l10.809,10.861c-1.319,0.296-2.747-0.092-3.727-1.071l-8.478-8.396c-0.197-0.195-0.514-0.191-0.707,0.004
			c-0.194,0.196-0.192,0.513,0.004,0.707l8.476,8.395c0.953,0.953,2.245,1.459,3.552,1.459c0.68,0,1.364-0.137,2.006-0.421
			c0.15-0.066,0.259-0.203,0.289-0.364c0.03-0.162-0.021-0.329-0.137-0.445L18.817,16.011z"/>
		<path class="open_een" d="M10,23.999c-0.512,0-1.024-0.195-1.414-0.585c-0.779-0.779-0.779-2.049,0-2.828s2.049-0.779,2.828,0
			s0.779,2.049,0,2.828C11.024,23.804,10.512,23.999,10,23.999z M10,21.001c-0.256,0-0.512,0.097-0.707,0.292
			c-0.39,0.39-0.39,1.024,0,1.414c0.391,0.391,1.023,0.391,1.414,0c0.39-0.39,0.39-1.024,0-1.414
			C10.512,21.098,10.256,21.001,10,21.001z"/>
		<path class="open_een" d="M10,11.999c-0.512,0-1.024-0.195-1.414-0.585c-0.779-0.779-0.779-2.049,0-2.828s2.049-0.779,2.828,0
			s0.779,2.049,0,2.828C11.024,11.804,10.512,11.999,10,11.999z M10,9.001c-0.256,0-0.512,0.097-0.707,0.292
			c-0.39,0.39-0.39,1.024,0,1.414c0.391,0.391,1.023,0.391,1.414,0c0.39-0.39,0.39-1.024,0-1.414
			C10.512,9.098,10.256,9.001,10,9.001z"/>
	</g>
	<g>
		<circle class="open_een" cx="16" cy="16" r="0.5"/>
		<path class="open_een" d="M18.817,16.011L29.856,4.918c0.116-0.116,0.167-0.283,0.137-0.445c-0.03-0.161-0.139-0.298-0.289-0.364
			c-1.873-0.828-4.107-0.411-5.556,1.036l-8.125,8.046l-1.377-1.377c0.719-1.839,0.295-3.948-1.106-5.349
			c-1.07-1.069-2.544-1.601-4.057-1.438C7.977,5.185,6.628,6.017,5.784,7.311c-1.113,1.71-1.044,3.973,0.175,5.63
			c0.98,1.333,2.468,2.057,4.01,2.057c0.729,0,1.472-0.162,2.178-0.498c0.249-0.118,0.355-0.416,0.236-0.666
			c-0.118-0.25-0.418-0.356-0.666-0.236c-1.761,0.835-3.797,0.322-4.952-1.248c-0.958-1.304-1.017-3.15-0.143-4.492
			C7.3,6.816,8.381,6.147,9.587,6.021c1.203-0.124,2.39,0.293,3.246,1.15c1.187,1.187,1.495,3.011,0.769,4.54
			c-0.091,0.191-0.052,0.419,0.098,0.568l1.614,1.614l-3.498,3.464c-2.12-0.837-4.487-0.167-5.862,1.701
			C4.735,20.718,4.666,22.98,5.78,24.69c0.843,1.293,2.191,2.125,3.698,2.282c1.509,0.159,2.986-0.368,4.057-1.438
			c1.485-1.484,1.873-3.766,0.964-5.677c-0.119-0.25-0.418-0.355-0.666-0.236c-0.249,0.118-0.355,0.416-0.236,0.666
			c0.727,1.529,0.418,3.354-0.769,4.54c-0.856,0.857-2.041,1.275-3.246,1.15c-1.206-0.126-2.286-0.795-2.964-1.835
			c-0.875-1.341-0.816-3.188,0.141-4.492c1.156-1.571,3.195-2.085,4.953-1.248c0.189,0.093,0.417,0.054,0.566-0.096L24.854,5.854
			c0.979-0.979,2.402-1.371,3.726-1.069L17.842,15.572c-0.095,0.059-0.17,0.147-0.21,0.256c-0.066,0.183-0.021,0.387,0.115,0.524
			l10.809,10.861c-1.319,0.296-2.747-0.092-3.727-1.071l-8.478-8.396c-0.197-0.195-0.514-0.191-0.707,0.004
			c-0.194,0.196-0.192,0.513,0.004,0.707l8.476,8.395c0.953,0.953,2.245,1.459,3.552,1.459c0.68,0,1.364-0.137,2.006-0.421
			c0.15-0.066,0.259-0.203,0.289-0.364c0.03-0.162-0.021-0.329-0.137-0.445L18.817,16.011z"/>
		<path class="open_een" d="M10,23.999c-0.512,0-1.024-0.195-1.414-0.585c-0.779-0.779-0.779-2.049,0-2.828s2.049-0.779,2.828,0
			s0.779,2.049,0,2.828C11.024,23.804,10.512,23.999,10,23.999z M10,21.001c-0.256,0-0.512,0.097-0.707,0.292
			c-0.39,0.39-0.39,1.024,0,1.414c0.391,0.391,1.023,0.391,1.414,0c0.39-0.39,0.39-1.024,0-1.414
			C10.512,21.098,10.256,21.001,10,21.001z"/>
		<path class="open_een" d="M10,11.999c-0.512,0-1.024-0.195-1.414-0.585c-0.779-0.779-0.779-2.049,0-2.828s2.049-0.779,2.828,0
			s0.779,2.049,0,2.828C11.024,11.804,10.512,11.999,10,11.999z M10,9.001c-0.256,0-0.512,0.097-0.707,0.292
			c-0.39,0.39-0.39,1.024,0,1.414c0.391,0.391,1.023,0.391,1.414,0c0.39-0.39,0.39-1.024,0-1.414
			C10.512,9.098,10.256,9.001,10,9.001z"/>
	</g>
</g>
</svg>