<?xml version="1.0" encoding="iso-8859-1"?>
<!-- Generator: Adobe Illustrator 18.1.1, SVG Export Plug-In . SVG Version: 6.00 Build 0)  -->
<svg version="1.1" id="Capa_1" xmlns="http://www.w3.org/2000/svg" xmlns:xlink="http://www.w3.org/1999/xlink" x="0px" y="0px"
	 viewBox="0 0 18.636 18.636" style="enable-background:new 0 0 18.636 18.636;" xml:space="preserve">
<g>
	<g>
		<g>
			<path style="fill:#030104;" d="M11.257,13.916H1.136C0.51,13.916,0,13.406,0,12.78V5.857c0-0.626,0.509-1.136,1.136-1.136h10.121
				c0.626,0,1.135,0.509,1.135,1.136v6.923C12.391,13.406,11.883,13.916,11.257,13.916z M1.136,5.695
				c-0.09,0-0.163,0.073-0.163,0.163v6.923c0,0.09,0.073,0.162,0.163,0.162h10.121c0.089,0,0.162-0.072,0.162-0.162V5.858
				c0-0.09-0.073-0.163-0.162-0.163C11.257,5.695,1.136,5.695,1.136,5.695z"/>
		</g>
		<g>
			<path style="fill:#030104;" d="M18.146,5.681l-4.752,2.023c-0.271,0-0.49,0.278-0.49,0.622V10c0,0.344,0.22,0.622,0.49,0.622
				l4.752,2.334c0.271,0,0.49-0.278,0.49-0.622V6.303C18.637,5.96,18.417,5.681,18.146,5.681z"/>
		</g>
	</g>
</g>
<g>
</g>
<g>
</g>
<g>
</g>
<g>
</g>
<g>
</g>
<g>
</g>
<g>
</g>
<g>
</g>
<g>
</g>
<g>
</g>
<g>
</g>
<g>
</g>
<g>
</g>
<g>
</g>
<g>
</g>
</svg>
